<?xml version="1.0" encoding="utf-8"?>
<!-- Generator: Adobe Illustrator 24.0.3, SVG Export Plug-In . SVG Version: 6.00 Build 0)  -->
<svg version="1.1" id="Layer_1" xmlns="http://www.w3.org/2000/svg" xmlns:xlink="http://www.w3.org/1999/xlink" x="0px" y="0px"
	 viewBox="0 0 512 512" style="enable-background:new 0 0 512 512;" xml:space="preserve">
<style type="text/css">
	.st0{fill:#00ADE4;}
</style>
<g>
	<g id="_x30_92---Traveling">
		<path id="Shape" class="st0" d="M501.6,407.6c-13.8,4.4-26.9,10.9-38.6,19.4c-10.9,7.3-28.5,15-38.1,6.4
			c-13.7-12.4,13.3-43.1,13.3-75.1c-0.1-24.8-17.5-42.9-47.9-49.6c-8.1-1.7-15.6-5.4-21.8-11c3.8-10.4,4.6-21.7,2.4-32.6
			c14.7-15.3,38.7-16,63.6-43.3C500.5,258.1,529.2,337.7,501.6,407.6L501.6,407.6z M359.2,203.1c20-0.4,39.9,3.3,58.5,10.8
			c-20.5,19.8-36.7,20.5-52.4,32.7l-12.4-37.1L359.2,203.1z M338.6,162.7c5.9-5.9,7.1-7.9,10.6-8c3-0.2,3.4,1,14,11.6
			c2.1,2.5,1.9,6.2-0.6,8.4l-16,16l-9.1-27.3C337.9,163.2,338.2,163,338.6,162.7L338.6,162.7z M222.5,34.7c1.2-1.2,2.8-2,4.6-2
			c1.4-0.1,2.8,0.5,3.9,1.4l10.2,10.2c2.1,2.5,1.9,6.2-0.6,8.4l-2.4,2.4l-28.3-7.7L222.5,34.7z M157,124.2c-0.4,0-0.7,0.1-1,0.2
			c-1.4,0.4-3,0-4.1-1.1c-1-1.1-1.4-2.6-1.1-4.1c0.1-0.3,0.1-0.7,0.2-1c0.9-3.4,2-6.7,3.5-9.9l18.5,9.3
			C168.1,120.5,162.7,122.8,157,124.2z M261.5,174.2c-30,30-52.1,44.3-91.5,72.5c-5.4,3.8-7.8,10.5-6.2,16.9l7.8,31.1l-5.5,5.5
			l-68.9-68.9l5.5-5.5l31.1,7.8c6.4,1.6,13.1-0.9,16.9-6.2c27.9-39.1,42.6-61.7,72.5-91.5c2-2,2.9-4.9,2.5-7.6
			c-0.5-2.8-2.2-5.2-4.8-6.5L89.4,55.9c10.5-11.4,26.5-16,41.5-11.9L268,81.5c4.6,1.2,9.5-0.1,12.8-3.4l38.8-38.8
			c32.1-32,57.6-31.6,68-29.6c1.2,6.9,2.6,32.3-29.9,68.3c-16.8,18.6-38.2,40.2-44.3,46.4c-3.5,3.5-4.8,8.8-3.2,13.5l42.9,128.6
			c4.1,15-0.5,30.9-11.9,41.5l-65.7-131.5c-1.3-2.5-3.7-4.3-6.5-4.8C266.3,171.2,263.5,172.1,261.5,174.2L261.5,174.2z M279.7,224.2
			l9.3,18.5c-3.5,1.7-7.2,2.9-11,3.7c-1.5,0.4-3,0-4.1-1.1s-1.5-2.6-1.1-4.1C274.2,235.2,276.5,229.5,279.7,224.2L279.7,224.2z
			 M216.7,316c6,10.8,15.4,19.4,26.8,24.2c19.4,8,44.8,5.1,43.4,21.2c-1.2,9.1-3.8,17.9-7.6,26.3c-10.6,27.1-9.9,34.5-6.8,53
			c2.7,10.6,2.6,21.8-0.5,32.4C223.3,436.9,201.4,374.8,216.7,316L216.7,316z M339.9,501.5c19.4-13,40.3-19.6,76.8-16.9
			c4.7,0.4,9.4,1,14,1.8C402.8,500.9,371,506.2,339.9,501.5z M451.7,473.3c-27.7-8.1-57.1-9.2-85.3-3c-18.1,4.8-34.8,13.7-48.8,26.1
			c-10.4-3.2-20.5-7.6-29.9-13.1c5-14.7,5.8-30.5,2.3-45.6c-2.6-15.4-3.5-19.9,5.8-43.6c4.4-9.9,7.4-20.5,8.7-31.2
			c1.3-12.5-5.9-24.3-17.6-28.9c-13.1-5.8-25.9-5.7-36.7-10.1c-13-6.6-22.2-18.9-24.6-33.3c6.2-13.7,14.5-26.4,24.6-37.6
			c1.8-2,3.8-3.8,5.7-5.7c0.9,3.9,2.8,7.6,5.6,10.5c9.9,9.9,23,6.5,35.4,0.7l29.6,59.3c2.3,4.6,6.7,7.8,11.8,8.6
			c5.1,0.8,10.2-0.8,13.9-4.5c2.7-2.6,5.2-5.3,7.5-8.2c7.9,6,17.1,10.2,26.8,12.3c15.5,3.4,34,11.8,34,32.4
			c0,22.8-16.6,42.7-17.1,64.8c-0.5,21.4,17.6,34.1,38.2,31.4c21.2-2.7,33.1-15.6,48.6-23.5C480.2,447.5,467.1,461.8,451.7,473.3
			L451.7,473.3z"/>
		<path id="Shape_1_" class="st0" d="M118.4,486.3C65.3,462.4,33.5,426.4,24,379.4c-14-68.9,24.2-148.5,65.6-193.2
			c3.2-3.6,3-9.1-0.6-12.4c-3.5-3.3-9.1-3.1-12.4,0.4C30.7,223.7-8.7,307.5,6.7,382.9c10.8,52.9,45.9,93.1,104.4,119.5
			c4.4,2,9.7,0,11.7-4.4C124.8,493.5,122.8,488.3,118.4,486.3L118.4,486.3z"/>
		<path id="Shape_2_" class="st0" d="M83.8,368.3c-2.9-22.5,4.2-45.2,19.6-62c3.3-3.5,3.3-9-0.1-12.4s-8.9-3.5-12.4-0.1
			c-19.1,20.5-28.1,48.4-24.7,76.2c4,40.3,28.9,77.7,70.1,105.1c4.1,2.7,9.5,1.6,12.2-2.4c2.7-4.1,1.6-9.5-2.4-12.2
			C109.4,436,87.3,403.3,83.8,368.3z"/>
		<path id="Shape_3_" class="st0" d="M147.8,385.1c-2.3-12.2,0.8-24.9,8.5-34.6c3.3-3.5,3.3-9-0.1-12.4c-3.4-3.4-8.9-3.5-12.4-0.1
			c-22.2,22.2-20.4,71.5,17.7,109.6c3.5,3.3,9,3.3,12.4-0.1s3.5-8.9,0.1-12.4C160,421.8,150.8,404.2,147.8,385.1L147.8,385.1z"/>
		<circle id="Oval" class="st0" cx="105.9" cy="158.9" r="8.8"/>
	</g>
</g>
</svg>
