<?xml version="1.0" encoding="utf-8"?>
<!-- Generator: Adobe Illustrator 24.0.3, SVG Export Plug-In . SVG Version: 6.00 Build 0)  -->
<svg version="1.1" id="Layer_1" xmlns="http://www.w3.org/2000/svg" xmlns:xlink="http://www.w3.org/1999/xlink" x="0px" y="0px"
	 viewBox="0 0 512 512" style="enable-background:new 0 0 512 512;" xml:space="preserve">
<style type="text/css">
	.st0{fill:#00ADE4;}
</style>
<g>
	<path class="st0" d="M470.5,358.4H282.8v-17.1h162.1c4.2,0,7.8-3.1,8.4-7.3c3.3-36.5-0.8-73.3-12-108.2
		c-16.7-55.1-57.9-133.6-158.6-196.3v-3.9c0-14.1-11.5-25.6-25.6-25.6c-14.1,0-25.6,11.5-25.6,25.6v7.2
		C181.3,190.3,39.4,325.2,38,326.6c-2.5,2.4-3.4,6.1-2.1,9.4c1.3,3.3,4.4,5.4,7.9,5.4h187.7v17.1H69.5c-3.6,0-6.9,2.3-8.1,5.7
		l-23,66c-7.4,18.4-5.1,39.3,6,55.7C55.5,502.2,74.1,512,93.9,512h282.2c24.3,0.1,46.3-14.6,55.3-37.2l46.9-104.4
		c1.2-2.6,1-5.7-0.6-8.1C476.1,359.9,473.4,358.4,470.5,358.4z M437.1,324.3H282.8V49.6C436.6,150.6,438.9,290.9,437.1,324.3z
		 M64.4,324.3c34.1-35.3,119.2-130.2,167.2-242.7v242.7H64.4z M248.7,25.6c0-4.7,3.8-8.5,8.5-8.5c4.7,0,8.5,3.8,8.5,8.5v332.8h-17.1
		V25.6z M231.6,375.5h225.7L442,409.6H63.6l11.9-34.1H231.6z M415.7,468.1c-6.4,16.2-22.2,26.9-39.6,26.8H93.9
		c-14.2,0-27.5-7.1-35.5-18.9c-7.9-11.8-9.4-26.8-4-40l3.3-9.4h376.7L415.7,468.1z"/>
	<path class="st0" d="M206,443.7H78c-4.7,0-8.5,3.8-8.5,8.5s3.8,8.5,8.5,8.5h128c4.7,0,8.5-3.8,8.5-8.5S210.7,443.7,206,443.7z"/>
	<path class="st0" d="M248.7,443.7h-8.5c-4.7,0-8.5,3.8-8.5,8.5s3.8,8.5,8.5,8.5h8.5c4.7,0,8.5-3.8,8.5-8.5S253.4,443.7,248.7,443.7
		z"/>
	<path class="st0" d="M392.8,274.8c0.8,4,4.3,6.8,8.4,6.8c0.6,0,1.1-0.1,1.7-0.2c4.6-0.9,7.6-5.4,6.7-10
		c-17.3-86.6-84.5-162.9-87.3-166.1c-2-2.4-5.1-3.5-8.2-2.9s-5.5,2.8-6.5,5.8c-1,3-0.2,6.2,1.9,8.5
		C310.1,117.3,376.4,192.6,392.8,274.8z"/>
	<path class="st0" d="M206,290.1h-34.1c-4.7,0-8.5,3.8-8.5,8.5s3.8,8.5,8.5,8.5H206c4.7,0,8.5-3.8,8.5-8.5S210.7,290.1,206,290.1z"
		/>
</g>
</svg>
